<svg width="2750.2" height="905.29" version="1.1" viewBox="0 0 2750.2 905.29" xml:space="preserve" xmlns="http://www.w3.org/2000/svg" xmlns:xlink="http://www.w3.org/1999/xlink"><defs><linearGradient id="linearGradient1" x1="337.73" x2="562.34" y1="747.92" y2="747.92" gradientUnits="userSpaceOnUse"><stop stop-color="#2b666f" offset="0"/><stop stop-color="#38a86f" offset="1"/></linearGradient><linearGradient id="linearGradient2" x1="521.43" x2="610.64" y1="709.63" y2="573.94" gradientUnits="userSpaceOnUse"><stop stop-color="#3fb984" offset="0"/><stop stop-color="#34886f" offset="1"/></linearGradient><linearGradient id="linearGradient3" x1="503.87" x2="685.11" y1="737.27" y2="737.27" gradientUnits="userSpaceOnUse"><stop stop-color="#1c4d4b" offset="0"/><stop stop-color="#1c4d4b" stop-opacity="0" offset="1"/></linearGradient><linearGradient id="linearGradient4" x1="369.98" x2="628.81" y1="232.45" y2="466.24" gradientUnits="userSpaceOnUse"><stop stop-color="#ffcf2c" offset="0"/><stop stop-color="#ffb32c" offset="1"/></linearGradient><linearGradient id="linearGradient5" x1="304.59" x2="721.89" y1="150.72" y2="538.03" gradientUnits="userSpaceOnUse"><stop stop-color="#d97a0d" offset="0"/><stop stop-color="#d97e08" offset="1"/></linearGradient></defs><g transform="translate(2119.5 642.5)"><g transform="translate(-2333.7 -691.15)"><g stroke="#1c4d4b"><path d="m361.37 569.94c7.5478 0.73759 12.651-0.96934 17.575-2.8559 21.344 36.71 54.268 55.827 90.469 61.971l76.649 181.52-41.414 98.191z" fill="url(#linearGradient1)" stroke-linecap="square" stroke-width="30" style="paint-order:stroke markers fill"/><path d="m488.79 630.73c53.645 2.4794 99.743-20.972 121.85-56.786 7.2912 5.2161 15.827 7.7363 25.789 7.1639l-82.346 207.43z" fill="url(#linearGradient2)" stroke-linecap="square" stroke-width="30" style="paint-order:stroke markers fill"/><path d="m511.37 943.94 166.23-413.34" fill="url(#linearGradient3)" stroke-linecap="round" stroke-linejoin="round" stroke-width="15" style="paint-order:stroke markers fill"/></g><path d="m309.82 250.4c-47.442-48.467 28.131-155.48 101.12-108.73 11.936-95.111 186.56-108.7 187.08 7.3951 49.773-53.067 151.96 13.976 99.445 102.73 103.62 4.2496 102.4 149.26 15.84 168.01 58.848 81.851-47.352 180.94-116.84 111.95-18.068 92.537-183.88 93.833-200.85-1.3212-93.067 52.178-155.46-59.228-106.52-119.57-88.6-16.603-66.065-154.57 20.725-160.46z" fill="url(#linearGradient4)" stroke="url(#linearGradient5)" stroke-linecap="square" stroke-width="30" style="paint-order:stroke markers fill"/><g transform="translate(-1051 9.8083)"><path d="m1439.4 274.85c9.3168-8.7521 20.328-12.987 33.032-12.705" fill="#ec9220" stroke="#ec9220" stroke-linecap="round" stroke-linejoin="round" stroke-width="18" style="paint-order:stroke markers fill"/><path d="m1684.1 280.59c-9.3168-8.7521-20.328-12.987-33.032-12.705" fill="#ec9220" stroke="#ec9220" stroke-linecap="round" stroke-linejoin="round" stroke-width="18" style="paint-order:stroke markers fill"/><g><ellipse cx="1453.9" cy="347.37" rx="45.321" ry="48.811" fill="#582912" style="paint-order:stroke markers fill"/><ellipse transform="rotate(34.488)" cx="1373.2" cy="-544.67" rx="13.552" ry="14.61" fill="#fefdfe" style="paint-order:stroke markers fill"/><ellipse transform="matrix(.99425 .10705 -.09292 .99567 0 0)" cx="1501.3" cy="198.73" rx="6.7032" ry="7.9607" fill="#fefdfe" style="paint-order:stroke markers fill"/></g><path d="m1450.7 380.23c5.901 0.0391 9.9682-0.55808 13.326-1.4973" fill="none" stroke="#894d0e" stroke-linecap="round" stroke-linejoin="round" stroke-width="13" style="paint-order:stroke markers fill"/><g transform="translate(209.71 3.0111)"><g><ellipse cx="1453.9" cy="347.37" rx="45.321" ry="48.811" fill="#582912" style="paint-order:stroke markers fill"/><ellipse transform="rotate(34.488)" cx="1373.2" cy="-544.67" rx="13.552" ry="14.61" fill="#fefdfe" style="paint-order:stroke markers fill"/><ellipse transform="matrix(.99425 .10705 -.09292 .99567 0 0)" cx="1501.3" cy="198.73" rx="6.7032" ry="7.9607" fill="#fefdfe" style="paint-order:stroke markers fill"/></g><path d="m1450.7 380.23c5.901 0.0391 9.9682-0.55808 13.326-1.4973" fill="none" stroke="#894d0e" stroke-linecap="round" stroke-linejoin="round" stroke-width="13" style="paint-order:stroke markers fill"/></g><g fill="none" stroke-linecap="round" stroke-linejoin="round"><path d="m1530 380.89c8.3252 26.701 47.843 27.749 59.113 0.89835" stroke="#813918" stroke-width="15" style="paint-order:stroke markers fill"/><path d="m1417.8 411.21c6.5104 4.4073 13.817 6.9561 22.022 7.4111" stroke="#fe8f47" stroke-width="30" style="paint-order:stroke markers fill"/><path d="m1695.9 414.19c-6.5104 4.4073-13.817 6.9561-22.022 7.4111" stroke="#fe8f47" stroke-width="30" style="paint-order:stroke markers fill"/></g></g></g><g transform="translate(-2740.5 -3292.1)" fill="#ffb62c"><g transform="matrix(1.142 0 0 1.142 1397 2990)" stroke="#d97d09" stroke-width="26.271"><path d="m74.448 228.37c-14.211 0-26.937-3.516-38.179-10.549-11.241-7.033-20.15-16.624-26.725-28.772-6.3631-12.148-9.5446-25.788-9.5446-40.92 0-15.345 3.1816-29.092 9.5446-41.24 6.5752-12.148 15.377-21.739 26.407-28.772 11.241-7.0332 24.074-10.55 38.497-10.55 11.029 0 20.892 2.2378 29.589 6.7134 8.908 4.4756 16.013 10.763 21.316 18.862 5.515 7.8855 8.484 16.836 8.908 26.854v54.987c-0.424 10.016-3.287 19.074-8.59 27.173-5.302 8.099-12.408 14.493-21.316 19.181-8.9086 4.689-18.877 7.033-29.907 7.033zm6.9994-38.682c7.8478 0 14.635-1.705 20.362-5.115 5.938-3.623 10.499-8.525 13.68-14.705 3.394-6.394 5.091-13.747 5.091-22.059 0-8.099-1.697-15.238-5.091-21.419-3.181-6.394-7.742-11.296-13.68-14.706-5.7273-3.623-12.408-5.434-20.044-5.434-7.8478 0-14.741 1.811-20.68 5.434-5.7268 3.624-10.287 8.525-13.681 14.706-3.1815 6.181-4.7723 13.32-4.7723 21.419 0 8.312 1.5908 15.665 4.7723 22.059 3.3937 6.18 8.06 11.082 13.999 14.705 5.9389 3.41 12.62 5.115 20.044 5.115zm78.266 35.486h-41.36v-41.56l6.681-37.723-7-37.084v-108.8h41.679z"/><path d="m250.78 228.37c-13.998 0-26.619-3.516-37.86-10.549s-20.044-16.624-26.407-28.772-9.544-25.788-9.544-40.92c0-15.345 3.181-29.092 9.544-41.24 6.363-12.148 15.166-21.739 26.407-28.772 11.241-7.0332 23.862-10.55 37.86-10.55 11.03 0 20.893 2.2378 29.589 6.7134s15.589 10.763 20.68 18.862c5.302 7.8855 8.166 16.836 8.59 26.854v55.626c-0.424 10.23-3.288 19.288-8.59 27.173-5.091 7.886-11.984 14.173-20.68 18.862-8.696 4.476-18.559 6.713-29.589 6.713zm7.636-38.682c11.666 0 21.104-3.836 28.316-11.509 7.211-7.885 10.817-18.009 10.817-30.37 0-8.099-1.697-15.238-5.09-21.419-3.182-6.394-7.742-11.296-13.681-14.706-5.727-3.623-12.514-5.434-20.362-5.434-7.636 0-14.423 1.811-20.362 5.434-5.727 3.41-10.287 8.312-13.68 14.706-3.182 6.181-4.773 13.32-4.773 21.419 0 8.312 1.591 15.665 4.773 22.059 3.393 6.18 7.953 11.082 13.68 14.705 5.939 3.41 12.726 5.115 20.362 5.115zm36.906 35.486v-41.56l6.681-37.723-6.681-37.084v-33.804h41.36v150.17z"/><path d="m357.82 225.17v-150.17h41.996v150.17zm20.998-177.22c-6.787 0-12.408-2.2378-16.862-6.7134-4.454-4.6888-6.681-10.443-6.681-17.263 0-6.6069 2.227-12.255 6.681-16.943 4.454-4.6888 10.075-7.0331 16.862-7.0331 7 0 12.62 2.3444 16.862 7.0331 4.455 4.6888 6.682 10.337 6.682 16.943 0 6.82-2.227 12.574-6.682 17.263-4.242 4.4756-9.862 6.7134-16.862 6.7134z"/><path d="m477.84 228.69c-8.696 0-17.287-1.172-25.771-3.516-8.272-2.345-15.907-5.542-22.907-9.591-6.999-4.263-13.044-9.378-18.135-15.345l24.816-25.255c5.303 5.967 11.454 10.443 18.453 13.426 7 2.984 14.742 4.476 23.226 4.476 6.787 0 11.877-0.959 15.271-2.877 3.606-1.918 5.409-4.795 5.409-8.632 0-4.262-1.909-7.566-5.727-9.91-3.606-2.344-8.378-4.263-14.317-5.754-5.939-1.705-12.196-3.517-18.771-5.435-6.363-2.131-12.514-4.795-18.453-7.992-5.939-3.41-10.817-7.993-14.635-13.747-3.606-5.967-5.409-13.64-5.409-23.017 0-9.804 2.333-18.329 6.999-25.575 4.879-7.2462 11.772-12.894 20.681-16.943 8.908-4.0494 19.407-6.0741 31.497-6.0741 12.726 0 24.18 2.2378 34.361 6.7134 10.393 4.4757 18.983 11.189 25.77 20.14l-25.134 25.255c-4.666-5.754-9.969-9.91-15.908-12.468-5.727-2.557-11.984-3.836-18.771-3.836-6.151 0-10.923 0.959-14.317 2.877-3.182 1.918-4.772 4.583-4.772 7.993 0 3.836 1.803 6.82 5.408 8.951 3.818 2.131 8.697 4.049 14.635 5.754 5.939 1.492 12.09 3.304 18.453 5.435 6.576 1.918 12.727 4.689 18.453 8.312 5.939 3.623 10.712 8.418 14.317 14.386 3.818 5.967 5.727 13.64 5.727 23.017 0 15.132-5.408 27.174-16.226 36.125-10.817 8.738-25.558 13.107-44.223 13.107z"/><path d="m611.23 226.45-62.906-151.45h45.178l41.272 114.68-17.391-2.127 44.623-112.56h45.496l-66.683 151.45zm-48.792 73.551 52.928-109.68 25.453 36.124-34.158 73.551z"/><path d="m821.42 228.37c-17.604 0-33.3-3.836-47.087-11.508-13.574-7.886-24.285-18.649-32.133-32.289s-11.772-29.091-11.772-46.355v-138.22h43.269v139.49c0 10.017 2.015 18.649 6.045 25.895 4.242 7.246 9.969 12.894 17.18 16.943 7.424 3.837 15.59 5.755 24.498 5.755 9.121 0 17.181-1.918 24.18-5.755 7-4.049 12.514-9.697 16.544-16.943 4.242-7.246 6.363-15.771 6.363-25.575v-139.81h43.587v138.54c0 17.263-3.924 32.715-11.771 46.355-7.848 13.427-18.559 24.083-32.134 31.969-13.362 7.672-28.952 11.508-46.769 11.508z"/><path d="m933.73 225v-225h43.269v225z"/></g><g transform="matrix(1.142 0 0 1.142 1397 3164)"><path d="m74.448 75.997c-14.211 0-26.937-3.516-38.179-10.549-11.241-7.033-20.15-16.624-26.725-28.772-6.3631-12.148-9.5446-25.788-9.5446-40.92 0-15.345 3.1816-29.092 9.5446-41.24 6.5752-12.148 15.377-21.739 26.407-28.772 11.241-7.0332 24.074-10.55 38.497-10.55 11.029 0 20.892 2.2378 29.589 6.7134 8.908 4.4756 16.013 10.763 21.316 18.862 5.515 7.8855 8.484 16.837 8.908 26.854v54.987c-0.424 10.016-3.287 19.074-8.59 27.173-5.302 8.099-12.408 14.493-21.316 19.181-8.9086 4.689-18.877 7.033-29.907 7.033zm6.9994-38.682c7.8478 0 14.635-1.705 20.362-5.115 5.938-3.623 10.499-8.525 13.68-14.705 3.394-6.394 5.091-13.747 5.091-22.059 0-8.099-1.697-15.238-5.091-21.419-3.181-6.394-7.742-11.296-13.68-14.706-5.7273-3.623-12.408-5.434-20.044-5.434-7.8478 0-14.741 1.811-20.68 5.434-5.7268 3.624-10.287 8.525-13.681 14.706-3.1815 6.181-4.7723 13.32-4.7723 21.419 0 8.312 1.5908 15.665 4.7723 22.059 3.3937 6.18 8.06 11.082 13.999 14.705 5.9389 3.41 12.62 5.115 20.044 5.115zm78.266 35.486h-41.36v-41.56l6.681-37.723-7-37.084v-108.8h41.679z"/><path d="m250.78 75.997c-13.998 0-26.619-3.516-37.86-10.549s-20.044-16.624-26.407-28.772-9.544-25.788-9.544-40.92c0-15.345 3.181-29.092 9.544-41.24 6.363-12.148 15.166-21.739 26.407-28.772 11.241-7.0332 23.862-10.55 37.86-10.55 11.03 0 20.893 2.2378 29.589 6.7134s15.589 10.763 20.68 18.862c5.302 7.8855 8.166 16.837 8.59 26.854v55.626c-0.424 10.23-3.288 19.288-8.59 27.173-5.091 7.886-11.984 14.173-20.68 18.862-8.696 4.476-18.559 6.713-29.589 6.713zm7.636-38.682c11.666 0 21.104-3.836 28.316-11.509 7.211-7.885 10.817-18.009 10.817-30.37 0-8.099-1.697-15.238-5.09-21.419-3.182-6.394-7.742-11.296-13.681-14.706-5.727-3.623-12.514-5.434-20.362-5.434-7.636 0-14.423 1.811-20.362 5.434-5.727 3.41-10.287 8.312-13.68 14.706-3.182 6.181-4.773 13.32-4.773 21.419 0 8.312 1.591 15.665 4.773 22.059 3.393 6.18 7.953 11.082 13.68 14.705 5.939 3.41 12.726 5.115 20.362 5.115zm36.906 35.486v-41.56l6.681-37.723-6.681-37.084v-33.804h41.36v150.17z"/><path d="m357.82 72.801v-150.17h41.996v150.17zm20.998-177.22c-6.787 0-12.408-2.2378-16.862-6.7134-4.454-4.6888-6.681-10.443-6.681-17.263 0-6.6069 2.227-12.255 6.681-16.943 4.454-4.6887 10.075-7.0331 16.862-7.0331 7 0 12.62 2.3444 16.862 7.0331 4.455 4.6888 6.682 10.337 6.682 16.943 0 6.82-2.227 12.574-6.682 17.263-4.242 4.4756-9.862 6.7134-16.862 6.7134z"/><path d="m477.84 76.317c-8.696 0-17.287-1.172-25.771-3.516-8.272-2.345-15.907-5.542-22.907-9.591-6.999-4.263-13.044-9.378-18.135-15.345l24.816-25.255c5.303 5.967 11.454 10.443 18.453 13.426 7 2.984 14.742 4.476 23.226 4.476 6.787 0 11.877-0.959 15.271-2.877 3.606-1.918 5.409-4.795 5.409-8.632 0-4.262-1.909-7.566-5.727-9.91-3.606-2.344-8.378-4.263-14.317-5.754-5.939-1.705-12.196-3.517-18.771-5.435-6.363-2.131-12.514-4.795-18.453-7.992-5.939-3.41-10.817-7.993-14.635-13.747-3.606-5.967-5.409-13.64-5.409-23.017 0-9.804 2.333-18.329 6.999-25.575 4.879-7.2462 11.772-12.894 20.681-16.943 8.908-4.0494 19.407-6.0741 31.497-6.0741 12.726 0 24.18 2.2378 34.361 6.7134 10.393 4.4757 18.983 11.189 25.77 20.14l-25.134 25.255c-4.666-5.754-9.969-9.91-15.908-12.468-5.727-2.557-11.984-3.836-18.771-3.836-6.151 0-10.923 0.959-14.317 2.877-3.182 1.918-4.772 4.583-4.772 7.993 0 3.836 1.803 6.82 5.408 8.951 3.818 2.131 8.697 4.049 14.635 5.754 5.939 1.492 12.09 3.304 18.453 5.435 6.576 1.918 12.727 4.689 18.453 8.312 5.939 3.623 10.712 8.418 14.317 14.386 3.818 5.967 5.727 13.64 5.727 23.017 0 15.132-5.408 27.174-16.226 36.125-10.817 8.738-25.558 13.107-44.223 13.107z"/><path d="m611.23 74.079-62.906-151.45h45.178l41.272 114.69-17.391-2.127 44.623-112.56h45.496l-66.683 151.45zm-48.792 73.551 52.928-109.68 25.453 36.124-34.158 73.551z"/><path d="m821.42 75.997c-17.604 0-33.3-3.836-47.087-11.508-13.574-7.886-24.285-18.649-32.133-32.289s-11.772-29.091-11.772-46.355v-138.21h43.269v139.49c0 10.017 2.015 18.649 6.045 25.895 4.242 7.246 9.969 12.894 17.18 16.943 7.424 3.837 15.59 5.755 24.498 5.755 9.121 0 17.181-1.918 24.18-5.755 7-4.049 12.514-9.697 16.544-16.943 4.242-7.246 6.363-15.771 6.363-25.575v-139.81h43.587v138.53c0 17.263-3.924 32.715-11.771 46.355-7.848 13.427-18.559 24.083-32.134 31.969-13.362 7.672-28.952 11.508-46.769 11.508z"/><path d="m933.73 72.63v-225h43.269v225z"/></g></g><g transform="translate(-1779.9 -3773.9)"><g transform="matrix(.94507 0 0 .94507 -302.69 2477.4)" fill="#3eb582" stroke="#1c4d4b" stroke-width="31.744"><path d="m2455.3 1127.7h58.762l-63.659 193.7h-61.483l-63.115-193.7h58.762l26.117 97.937c5.441 21.764 8.7056 36.999 9.2497 45.704 0.5441-5.985 1.6322-14.146 3.8086-23.396 1.6323-9.2497 3.2646-16.323 4.8969-21.764z"/><path d="m2638.7 1321.4-6.5292-18.499h-3.2645c-4.3528 7.0732-10.338 11.97-17.955 15.779-7.6174 3.8086-16.867 5.4409-27.205 5.4409-16.323 0-29.381-4.8968-38.631-14.146-9.2497-9.7937-13.602-22.852-13.602-40.807v-97.937h51.689v82.158c0 9.7938 1.6323 17.411 4.3528 22.308 2.7204 4.8968 7.0732 7.6173 13.602 7.6173 8.7055 0 15.235-3.2646 19.043-10.338s5.441-19.043 5.441-35.366v-66.38h51.689v150.17z"/><path d="m2785.6 1324.1c-25.028 0-44.616-6.5291-58.218-20.132-13.602-13.058-20.676-32.102-20.676-56.586 0-25.572 6.5292-44.616 19.043-58.218 13.058-13.602 31.013-20.132 54.954-20.132 22.852 0 40.263 5.9851 52.233 17.411 12.514 11.97 18.499 28.837 18.499 51.145v22.852h-92.496c0.5441 8.1614 3.2646 14.691 9.2497 19.587 5.985 4.8969 13.602 7.0733 23.396 7.0733 9.2496 0 17.411-1.0882 25.028-2.7205 7.6174-1.6323 15.779-4.8968 25.028-8.7055v36.998c-8.1614 4.3528-16.323 7.0733-25.028 8.7056-8.7055 1.6322-19.043 2.7204-31.014 2.7204zm-2.7204-120.25c-5.9851 0-11.426 2.1764-15.235 5.9851-4.3528 3.8086-6.5292 9.7937-7.0733 17.955h44.616c0-7.0732-2.1764-13.058-5.9851-17.411-3.8086-4.3527-9.7937-6.5291-16.323-6.5291z"/></g><g transform="matrix(.94507 0 0 .94507 -302.69 2477.4)" fill="#3fb984" stroke-width="5.441"><path d="m2455.3 1127.7h58.762l-63.659 193.7h-61.483l-63.115-193.7h58.762l26.117 97.937c5.441 21.764 8.7056 36.999 9.2497 45.704 0.5441-5.985 1.6322-14.146 3.8086-23.396 1.6323-9.2497 3.2646-16.323 4.8969-21.764z"/><path d="m2638.7 1321.4-6.5292-18.499h-3.2645c-4.3528 7.0732-10.338 11.97-17.955 15.779-7.6174 3.8086-16.867 5.4409-27.205 5.4409-16.323 0-29.381-4.8968-38.631-14.146-9.2497-9.7937-13.602-22.852-13.602-40.807v-97.937h51.689v82.158c0 9.7938 1.6323 17.411 4.3528 22.308 2.7204 4.8968 7.0732 7.6173 13.602 7.6173 8.7055 0 15.235-3.2646 19.043-10.338s5.441-19.043 5.441-35.366v-66.38h51.689v150.17z"/><path d="m2785.6 1324.1c-25.028 0-44.616-6.5291-58.218-20.132-13.602-13.058-20.676-32.102-20.676-56.586 0-25.572 6.5292-44.616 19.043-58.218 13.058-13.602 31.013-20.132 54.954-20.132 22.852 0 40.263 5.9851 52.233 17.411 12.514 11.97 18.499 28.837 18.499 51.145v22.852h-92.496c0.5441 8.1614 3.2646 14.691 9.2497 19.587 5.985 4.8969 13.602 7.0733 23.396 7.0733 9.2496 0 17.411-1.0882 25.028-2.7205 7.6174-1.6323 15.779-4.8968 25.028-8.7055v36.998c-8.1614 4.3528-16.323 7.0733-25.028 8.7056-8.7055 1.6322-19.043 2.7204-31.014 2.7204zm-2.7204-120.25c-5.9851 0-11.426 2.1764-15.235 5.9851-4.3528 3.8086-6.5292 9.7937-7.0733 17.955h44.616c0-7.0732-2.1764-13.058-5.9851-17.411-3.8086-4.3527-9.7937-6.5291-16.323-6.5291z"/></g></g><g transform="translate(-2688.7 -4054.6)" fill="#818181"><path d="m2604.9 3811.8v74.118h-74.12v49.413h74.12v74.118h49.411v-74.118h74.12v-49.413h-74.12v-74.118z" style="paint-order:stroke markers fill"/><path d="m2604.9 3811.8v74.118h-74.12v49.413h74.12v74.118h49.411v-74.118h74.12v-49.413h-74.12v-74.118z" style="paint-order:stroke markers fill"/></g></g></svg>
